<?xml version="1.0" standalone="no"?>
<!DOCTYPE svg PUBLIC "-//W3C//DTD SVG 20010904//EN"
 "http://www.w3.org/TR/2001/REC-SVG-20010904/DTD/svg10.dtd">
<svg version="1.0" xmlns="http://www.w3.org/2000/svg"
 width="1550.000000pt" height="1184.000000pt" viewBox="0 0 1550.000000 1184.000000"
 preserveAspectRatio="xMidYMid meet">
<metadata>
Created by potrace 1.15, written by Peter Selinger 2001-2017
</metadata>
<g transform="translate(0.000000,1184.000000) scale(0.100000,-0.100000)"
fill="#000000" stroke="none">
<path d="M8495 11158 c-479 -22 -935 -145 -1382 -373 -352 -180 -726 -461
-953 -715 -36 -40 -75 -85 -88 -99 -281 -315 -532 -758 -673 -1186 -181 -549
-219 -1177 -104 -1750 44 -218 125 -487 189 -630 8 -16 24 -55 37 -85 37 -90
144 -293 210 -403 71 -115 74 -121 188 -273 l82 -111 72 -12 c121 -21 275 -62
472 -126 226 -73 239 -77 290 -91 347 -101 580 -136 1140 -174 88 -5 230 -15
315 -21 85 -6 427 -15 760 -20 333 -4 630 -13 660 -18 142 -25 216 -45 312
-85 56 -24 192 -131 249 -197 29 -32 57 -59 63 -59 6 0 43 26 82 58 39 31 88
71 110 88 21 18 125 101 229 185 105 84 290 233 412 331 122 99 238 198 257
221 137 170 328 494 432 735 8 17 22 49 31 70 33 74 121 350 151 472 80 327
114 688 93 1008 -12 194 -15 225 -47 412 -65 393 -225 821 -438 1175 -149 247
-302 442 -520 661 -131 131 -190 183 -376 332 -118 95 -402 266 -579 349 -161
75 -167 78 -246 108 -263 100 -491 157 -820 206 -112 16 -432 25 -610 17z
m-497 -1306 l2 -282 378 2 377 3 3 283 2 282 115 0 115 0 2 -282 3 -283 120
-6 c271 -14 464 -93 642 -262 144 -137 234 -295 280 -490 20 -88 23 -306 4
-387 -49 -213 -157 -403 -298 -529 l-56 -50 38 -15 c21 -9 42 -16 47 -16 24 0
201 -95 263 -141 400 -300 532 -829 315 -1259 -124 -246 -342 -418 -630 -497
-42 -12 -136 -17 -390 -22 l-335 -6 -5 -260 -5 -260 -112 -3 -113 -3 -2 263
-3 263 -377 3 -378 2 0 -252 c0 -139 -4 -259 -8 -266 -6 -9 -37 -12 -118 -10
l-109 3 -5 260 -5 260 -282 3 -283 2 0 115 0 115 280 0 280 0 5 23 c3 12 4
731 3 1597 l-3 1575 -282 3 -283 2 0 120 0 120 283 2 282 3 3 283 2 283 118
-3 117 -3 3 -283z"/>
<path d="M8000 8605 l0 -725 578 0 c661 0 662 0 832 77 95 43 218 148 282 241
79 115 128 273 128 414 0 291 -170 549 -433 661 -132 56 -141 56 -789 57
l-598 0 0 -725z"/>
<path d="M8005 7638 c-3 -7 -4 -348 -3 -758 l3 -745 735 -3 c760 -3 864 1 977
37 321 102 527 411 498 746 -29 331 -256 608 -574 700 -105 31 -212 35 -917
35 -562 0 -716 -3 -719 -12z"/>
<path d="M13404 6765 c-143 -25 -269 -89 -425 -216 -37 -30 -84 -67 -105 -84
-21 -16 -97 -77 -168 -135 -323 -261 -505 -408 -696 -561 -113 -91 -288 -232
-390 -314 -102 -82 -241 -194 -310 -250 -69 -55 -276 -222 -460 -370 -184
-148 -351 -282 -370 -299 l-35 -30 0 -170 c0 -150 -3 -180 -24 -246 -48 -156
-116 -267 -235 -385 -141 -140 -308 -231 -501 -274 -103 -24 -282 -31 -1060
-42 -1242 -18 -2366 12 -2670 70 -68 13 -105 54 -105 117 0 41 5 51 37 82 l37
35 86 -7 c47 -4 126 -11 175 -16 366 -34 714 -43 1635 -44 1266 -1 1685 8
1840 40 150 31 357 173 448 306 78 115 106 216 101 368 -4 94 -7 112 -38 177
-24 51 -52 91 -100 138 -91 90 -143 123 -231 147 -147 39 -148 39 -715 48
-607 10 -878 21 -1385 60 -469 35 -759 93 -1185 235 -289 96 -449 136 -685
172 -161 24 -603 24 -780 -1 -211 -29 -333 -52 -505 -94 -298 -74 -392 -108
-616 -218 -69 -34 -175 -90 -235 -124 -60 -35 -118 -68 -129 -74 -11 -6 -31
-18 -45 -27 -14 -9 -88 -55 -165 -104 -77 -48 -270 -179 -430 -290 -159 -111
-318 -220 -352 -241 -35 -21 -64 -43 -66 -49 -2 -5 63 -118 144 -250 81 -132
178 -289 215 -350 65 -106 142 -232 303 -495 108 -175 202 -329 316 -515 54
-88 121 -198 150 -245 28 -47 89 -146 135 -220 129 -210 212 -345 216 -349 5
-5 28 7 184 96 117 66 150 82 230 112 204 76 426 98 661 65 217 -29 541 -79
679 -104 64 -12 280 -48 360 -60 48 -8 413 -70 495 -84 17 -3 102 -17 190 -31
88 -14 187 -30 220 -35 33 -6 175 -26 315 -45 528 -72 648 -81 853 -66 147 12
184 17 332 47 156 33 330 94 483 169 283 139 1406 883 2037 1350 298 220 418
311 615 464 326 254 821 661 985 811 22 20 90 81 150 136 188 168 242 220 515
494 318 317 544 562 698 758 157 200 186 485 70 705 -45 86 -154 193 -245 240
-135 70 -303 97 -449 72z"/>
<path d="M1930 4311 c-52 -31 -167 -102 -255 -156 -88 -54 -198 -121 -245
-150 -309 -188 -411 -251 -460 -283 -80 -53 -79 -68 13 -217 144 -232 370
-600 388 -632 9 -17 48 -80 85 -140 37 -59 97 -157 134 -218 37 -60 97 -159
134 -218 37 -60 76 -124 86 -142 10 -17 47 -79 83 -136 82 -132 204 -330 298
-484 40 -66 107 -176 150 -245 42 -69 145 -237 229 -375 210 -344 209 -342
226 -349 41 -16 34 -19 409 211 289 178 407 250 560 343 183 112 205 130 205
163 0 14 -51 108 -116 213 -64 104 -161 263 -217 354 -55 91 -128 210 -162
265 -34 55 -181 294 -325 530 -145 237 -299 489 -343 560 -44 72 -110 180
-147 240 -37 61 -104 171 -150 245 -45 74 -113 185 -150 245 -215 353 -252
411 -267 423 -31 22 -67 12 -163 -47z m913 -2937 c129 -202 187 -299 187 -313
0 -5 -31 -30 -69 -54 -105 -68 -111 -71 -126 -55 -29 29 -296 462 -293 474 3
16 168 123 183 120 6 -1 59 -79 118 -172z"/>
</g>
</svg>
